<svg width="76" height="70" viewBox="0 0 76 70" fill="none" xmlns="http://www.w3.org/2000/svg">
<g id="Group 29">
<rect id="Rectangle" x="1.21301" y="0.5" width="73.9962" height="69" rx="3.5" fill="white" stroke="#E3E2E3"/>
<g id="Group 27">
<path id="Combined Shape" fill-rule="evenodd" clip-rule="evenodd" d="M39.4494 36.1684C38.4123 36.8107 36.2159 37.7645 32.3186 37.7645C28.4211 37.7645 26.2248 36.8107 25.1877 36.1684C24.7146 35.8755 24.4337 35.3776 24.4337 34.8472V32.5646C24.4337 31.9782 24.9425 31.5027 25.57 31.5027H32.3186H39.0671C39.6946 31.5027 40.2033 31.9782 40.2033 32.5646V34.8472C40.2033 35.3776 39.9225 35.8755 39.4494 36.1684ZM32.3186 25C26.6974 25 22.1405 29.2592 22.1405 34.5131C22.1405 39.7672 26.6974 44.0264 32.3186 44.0264C37.9398 44.0264 42.4966 39.7672 42.4966 34.5131C42.4966 29.2592 37.9398 25 32.3186 25ZM28.6999 33.0439C28.0525 33.0439 27.5275 33.5345 27.5275 34.1398C27.5275 34.745 28.0525 35.2356 28.6999 35.2356C29.3474 35.2356 29.8724 34.745 29.8724 34.1398C29.8724 33.5345 29.3474 33.0439 28.6999 33.0439ZM34.7645 34.1398C34.7645 33.5345 35.2895 33.0439 35.937 33.0439C36.5845 33.0439 37.1094 33.5345 37.1094 34.1398C37.1094 34.745 36.5845 35.2356 35.937 35.2356C35.2895 35.2356 34.7645 34.745 34.7645 34.1398Z" fill="#B1B0B2"/>
<g id="Combined Shape_2">
<mask id="path-3-outside-1_1_23" maskUnits="userSpaceOnUse" x="38.354" y="25" width="21" height="19" fill="black">
<rect fill="white" x="38.354" y="25" width="21" height="19"/>
<path fill-rule="evenodd" clip-rule="evenodd" d="M47.2466 27C46.6943 27 46.2466 27.4477 46.2466 28V32.5H41.354C40.8017 32.5 40.354 32.9477 40.354 33.5V35.5C40.354 36.0523 40.8017 36.5 41.354 36.5H46.2466V41C46.2466 41.5523 46.6943 42 47.2466 42H49.5321C50.0843 42 50.5321 41.5523 50.5321 41V36.5H55.4246C55.9769 36.5 56.4246 36.0523 56.4246 35.5V33.5C56.4246 32.9477 55.9769 32.5 55.4246 32.5H50.5321V28C50.5321 27.4477 50.0843 27 49.5321 27H47.2466Z"/>
</mask>
<path fill-rule="evenodd" clip-rule="evenodd" d="M47.2466 27C46.6943 27 46.2466 27.4477 46.2466 28V32.5H41.354C40.8017 32.5 40.354 32.9477 40.354 33.5V35.5C40.354 36.0523 40.8017 36.5 41.354 36.5H46.2466V41C46.2466 41.5523 46.6943 42 47.2466 42H49.5321C50.0843 42 50.5321 41.5523 50.5321 41V36.5H55.4246C55.9769 36.5 56.4246 36.0523 56.4246 35.5V33.5C56.4246 32.9477 55.9769 32.5 55.4246 32.5H50.5321V28C50.5321 27.4477 50.0843 27 49.5321 27H47.2466Z" fill="#B1B0B2"/>
<path d="M46.2466 32.5V34.5H48.2466V32.5H46.2466ZM46.2466 36.5H48.2466V34.5H46.2466V36.5ZM50.5321 36.5V34.5H48.5321V36.5H50.5321ZM50.5321 32.5H48.5321V34.5H50.5321V32.5ZM48.2466 28C48.2466 28.5523 47.7988 29 47.2466 29V25C45.5897 25 44.2466 26.3431 44.2466 28H48.2466ZM48.2466 32.5V28H44.2466V32.5H48.2466ZM41.354 34.5H46.2466V30.5H41.354V34.5ZM42.354 33.5C42.354 34.0523 41.9063 34.5 41.354 34.5V30.5C39.6971 30.5 38.354 31.8431 38.354 33.5H42.354ZM42.354 35.5V33.5H38.354V35.5H42.354ZM41.354 34.5C41.9063 34.5 42.354 34.9477 42.354 35.5H38.354C38.354 37.1569 39.6972 38.5 41.354 38.5V34.5ZM46.2466 34.5H41.354V38.5H46.2466V34.5ZM48.2466 41V36.5H44.2466V41H48.2466ZM47.2466 40C47.7988 40 48.2466 40.4477 48.2466 41H44.2466C44.2466 42.6569 45.5897 44 47.2466 44V40ZM49.5321 40H47.2466V44H49.5321V40ZM48.5321 41C48.5321 40.4477 48.9798 40 49.5321 40V44C51.1889 44 52.5321 42.6569 52.5321 41H48.5321ZM48.5321 36.5V41H52.5321V36.5H48.5321ZM55.4246 34.5H50.5321V38.5H55.4246V34.5ZM54.4246 35.5C54.4246 34.9477 54.8723 34.5 55.4246 34.5V38.5C57.0815 38.5 58.4246 37.1569 58.4246 35.5H54.4246ZM54.4246 33.5V35.5H58.4246V33.5H54.4246ZM55.4246 34.5C54.8723 34.5 54.4246 34.0523 54.4246 33.5H58.4246C58.4246 31.8431 57.0815 30.5 55.4246 30.5V34.5ZM50.5321 34.5H55.4246V30.5H50.5321V34.5ZM48.5321 28V32.5H52.5321V28H48.5321ZM49.5321 29C48.9798 29 48.5321 28.5523 48.5321 28H52.5321C52.5321 26.3431 51.1889 25 49.5321 25V29ZM47.2466 29H49.5321V25H47.2466V29Z" fill="white" mask="url(#path-3-outside-1_1_23)"/>
</g>
</g>
</g>
</svg>